<svg xmlns="http://www.w3.org/2000/svg" width="48" height="48" viewBox="0 0 48 48">
	<rect width="48" height="48" fill="Transparent"/>
	<path d="M36.2,32.018H29a4.988,4.988,0,0,0,0-.516,2.736,2.736,0,0,0-.09-.861,12.312,12.312,0,0,0-.216-1.829c-.09-.6-.09-.6-.144-.925q-.2-1.033-.432-2.151l-.162-.645a21.948,21.948,0,0,0-.666-2.151c-.09-.28-.18-.538-.288-.818s-.432-1.162-.684-1.721a6.608,6.608,0,0,0-.288-.645,30.036,30.036,0,0,0-2.575-4.6L23.349,15a5.785,5.785,0,0,0-.4-.559l5.131-6.153a2.459,2.459,0,0,0,0-3.033,1.6,1.6,0,0,0-2.539,0l-5.239,6.153a25.681,25.681,0,0,0-6.787-5.034,1.714,1.714,0,0,0-2.358,1.162,2.323,2.323,0,0,0,.972,2.818,21.242,21.242,0,0,1,5.617,4.109L2.519,32.664A2.469,2.469,0,0,0,2.143,35,1.829,1.829,0,0,0,3.8,36.321H36.2a2.186,2.186,0,0,0,0-4.3Zm-15.915-14.5.18.237.09.129a25.983,25.983,0,0,1,2.214,3.937c0,.194.162.366.234.559s.414.99.594,1.484.162.452.252.688c.2.624.4,1.269.558,1.915l.144.559q.221.869.36,1.764a1.762,1.762,0,0,0,.126.8,7.713,7.713,0,0,1,.2,1.549,3.043,3.043,0,0,1,0,.731v.151H8.136Z" transform="translate(3.996 3.371)" fill="#fff"/>
</svg>
