<svg xmlns="http://www.w3.org/2000/svg" width="36" height="36" viewBox="0 0 36 36">
	<rect width="36" height="36" fill="Transparent"/>
	<path d="M98-853a8.674,8.674,0,0,0,6.368-2.633A8.674,8.674,0,0,0,107-862a8.674,8.674,0,0,0-2.632-6.368A8.674,8.674,0,0,0,98-871a8.674,8.674,0,0,0-6.368,2.632A8.674,8.674,0,0,0,89-862a8.674,8.674,0,0,0,2.632,6.367A8.674,8.674,0,0,0,98-853Zm0,9a17.527,17.527,0,0,1-7.02-1.418,18.178,18.178,0,0,1-5.715-3.847,18.178,18.178,0,0,1-3.847-5.715A17.527,17.527,0,0,1,80-862a17.528,17.528,0,0,1,1.418-7.02,18.178,18.178,0,0,1,3.847-5.715,18.178,18.178,0,0,1,5.715-3.847A17.527,17.527,0,0,1,98-880a17.527,17.527,0,0,1,7.02,1.417,18.177,18.177,0,0,1,5.715,3.847,18.177,18.177,0,0,1,3.848,5.715A17.528,17.528,0,0,1,116-862a17.527,17.527,0,0,1-1.417,7.02,18.177,18.177,0,0,1-3.848,5.715,18.177,18.177,0,0,1-5.715,3.847A17.527,17.527,0,0,1,98-844Zm0-3.6a13.9,13.9,0,0,0,10.215-4.185A13.9,13.9,0,0,0,112.4-862a13.9,13.9,0,0,0-4.185-10.215A13.9,13.9,0,0,0,98-876.4a13.9,13.9,0,0,0-10.215,4.185A13.9,13.9,0,0,0,83.6-862a13.9,13.9,0,0,0,4.185,10.215A13.9,13.9,0,0,0,98-847.6ZM98-862Z" transform="translate(-80 880)" fill="#61ae23"/>
</svg>
