<svg xmlns="http://www.w3.org/2000/svg" width="48" height="48" viewBox="0 0 48 48">
	<rect width="48" height="48" fill="Transparent"/>
	<path d="M98-855.7l8.1-8.1-2.565-2.52L98-860.785l-5.535-5.535L89.9-863.8ZM98-844a17.527,17.527,0,0,1-7.02-1.418,18.178,18.178,0,0,1-5.715-3.847,18.178,18.178,0,0,1-3.847-5.715A17.527,17.527,0,0,1,80-862a17.528,17.528,0,0,1,1.418-7.02,18.178,18.178,0,0,1,3.847-5.715,18.178,18.178,0,0,1,5.715-3.847A17.527,17.527,0,0,1,98-880a17.527,17.527,0,0,1,7.02,1.417,18.177,18.177,0,0,1,5.715,3.847,18.177,18.177,0,0,1,3.848,5.715A17.528,17.528,0,0,1,116-862a17.527,17.527,0,0,1-1.417,7.02,18.177,18.177,0,0,1-3.848,5.715,18.177,18.177,0,0,1-5.715,3.847A17.527,17.527,0,0,1,98-844Z" transform="translate(-74 886)" fill="#fff"/>
</svg>
