<svg  xmlns="http://www.w3.org/2000/svg" width="48" height="48" viewBox="0 0 48 48">
<style type="text/css">
	.st0{fill:#FFFFFF;}
</style>
<rect width="48" height="48" fill="Transparent"/>
<path class="st0" d="M24,17.7l-8.1,8.1l2.6,2.5l5.5-5.5l5.5,5.5l2.6-2.5L24,17.7z M24,6c2.4,0,4.8,0.5,7,1.4
	c2.1,0.9,4.1,2.2,5.7,3.8c1.6,1.6,2.9,3.6,3.8,5.7c1,2.2,1.4,4.6,1.4,7c0,2.4-0.5,4.8-1.4,7c-0.9,2.1-2.2,4.1-3.8,5.7
	c-1.6,1.6-3.6,2.9-5.7,3.8c-2.2,1-4.6,1.4-7,1.4c-2.4,0-4.8-0.5-7-1.4c-2.1-0.9-4.1-2.2-5.7-3.8c-1.6-1.6-2.9-3.6-3.8-5.7
	c-1-2.2-1.4-4.6-1.4-7c0-2.4,0.5-4.8,1.4-7c0.9-2.1,2.2-4.1,3.8-5.7c1.6-1.6,3.6-2.9,5.7-3.8C19.2,6.5,21.6,6,24,6z"/>
</svg>
