<svg xmlns="http://www.w3.org/2000/svg" width="48" height="48" viewBox="0 0 48 48">
  <path d="M24,48A24,24,0,0,1,7.029,7.029,24,24,0,0,1,40.971,40.971,23.842,23.842,0,0,1,24,48Zm.6-15.315a3.167,3.167,0,1,0,2.23.927A3.054,3.054,0,0,0,24.605,32.685Zm0-19.421a4.145,4.145,0,0,1,3.02,1.066,3.62,3.62,0,0,1,1.086,2.685,3.7,3.7,0,0,1-.849,2.388,21.611,21.611,0,0,1-2.468,2.467,9.027,9.027,0,0,0-2.427,3.059,13.3,13.3,0,0,0-.572,4.6h4.54a9.26,9.26,0,0,1,.414-3.3A10.789,10.789,0,0,1,29.7,23.408a17.165,17.165,0,0,0,2.665-3.178,6.429,6.429,0,0,0,.849-3.375,7.731,7.731,0,0,0-2.23-5.546A8.492,8.492,0,0,0,24.605,9a8.4,8.4,0,0,0-5.566,1.855A9.6,9.6,0,0,0,16,15.237l4.065,1.737a7.769,7.769,0,0,1,1.481-2.488A3.82,3.82,0,0,1,24.605,13.263Z" fill="#999"/>
</svg>
