<svg xmlns="http://www.w3.org/2000/svg" width="48" height="48" viewBox="0 0 48 48">
	<rect width="48" height="48" fill="Transparent" />
	<path d="M14.4,36h0A60.145,60.145,0,0,1,3.578,24.548C1.2,21.039,0,17.746,0,14.76A16.147,16.147,0,0,1,1.086,8.7,12.934,12.934,0,0,1,4.343,4.005,14.447,14.447,0,0,1,14.4,0a14.444,14.444,0,0,1,10.057,4A12.928,12.928,0,0,1,27.714,8.7,16.149,16.149,0,0,1,28.8,14.76c0,2.986-1.2,6.279-3.578,9.788A60.117,60.117,0,0,1,14.4,36ZM13.073,10.492h0V21h3.3V6.782h-.3L9.831,8.94v2.5l3.241-.946Z" transform="translate(10 6)" fill="#E54028"/>
</svg>
