<svg xmlns="http://www.w3.org/2000/svg" width="48" height="48" viewBox="0 0 48 48">
	<rect width="48" height="48" fill="Transparent" />
	<path d="M14.4,36h0A60.145,60.145,0,0,1,3.578,24.548C1.2,21.039,0,17.746,0,14.76A16.147,16.147,0,0,1,1.086,8.7,12.934,12.934,0,0,1,4.343,4.005,14.447,14.447,0,0,1,14.4,0a14.444,14.444,0,0,1,10.057,4A12.928,12.928,0,0,1,27.714,8.7,16.149,16.149,0,0,1,28.8,14.76c0,2.986-1.2,6.279-3.578,9.788A60.117,60.117,0,0,1,14.4,36ZM13.775,9.115a1.433,1.433,0,0,1,1.162.479,2.131,2.131,0,0,1,.4,1.4c0,.753-.568,1.781-1.689,3.057l-4.57,4.8V21H19V18.461H13.4l1.836-2.119A24.73,24.73,0,0,0,17.365,14a7.205,7.205,0,0,0,.971-1.67,4.445,4.445,0,0,0,.313-1.635A3.813,3.813,0,0,0,17.4,7.641a5.328,5.328,0,0,0-3.55-1.065,5.42,5.42,0,0,0-2.6.625A4.612,4.612,0,0,0,9.439,8.934a4.7,4.7,0,0,0-.654,2.417h3.3a2.643,2.643,0,0,1,.469-1.6A1.452,1.452,0,0,1,13.775,9.115Z" transform="translate(10.002 6)" fill="#E54028"/>
</svg>
