<svg xmlns="http://www.w3.org/2000/svg" width="48" height="48" viewBox="0 0 48 48">
  <path d="M24,48A24,24,0,0,1,7.029,7.029,24,24,0,0,1,40.97,40.97,23.842,23.842,0,0,1,24,48ZM13.463,30.407a8.555,8.555,0,0,0,2.578,6.64,10.4,10.4,0,0,0,7.227,2.344A10.794,10.794,0,0,0,28.3,38.219a8.637,8.637,0,0,0,3.515-3.3,9.373,9.373,0,0,0,1.26-4.844V10.562H26.236V30.074a5.02,5.02,0,0,1-.771,2.978,2.56,2.56,0,0,1-2.2,1.065,2.68,2.68,0,0,1-2.256-.879,4.717,4.717,0,0,1-.673-2.831Z" transform="translate(0 0)" fill="#999"/>
</svg>
