<svg xmlns="http://www.w3.org/2000/svg" width="48" height="48" viewBox="0 0 48 48">
	<rect width="48" height="48" fill="Transparent" />
	<g transform="translate(-5835 316)">
		<path d="M404-768a3.851,3.851,0,0,1-2.825-1.175A3.852,3.852,0,0,1,400-772a3.852,3.852,0,0,1,1.175-2.825A3.851,3.851,0,0,1,404-776a3.851,3.851,0,0,1,2.825,1.175A3.852,3.852,0,0,1,408-772a3.852,3.852,0,0,1-1.175,2.825A3.851,3.851,0,0,1,404-768Zm0-12a3.851,3.851,0,0,1-2.825-1.175A3.852,3.852,0,0,1,400-784a3.852,3.852,0,0,1,1.175-2.825A3.851,3.851,0,0,1,404-788a3.851,3.851,0,0,1,2.825,1.175A3.852,3.852,0,0,1,408-784a3.852,3.852,0,0,1-1.175,2.825A3.851,3.851,0,0,1,404-780Zm0-12a3.851,3.851,0,0,1-2.825-1.175A3.852,3.852,0,0,1,400-796a3.852,3.852,0,0,1,1.175-2.825A3.851,3.851,0,0,1,404-800a3.851,3.851,0,0,1,2.825,1.175A3.852,3.852,0,0,1,408-796a3.852,3.852,0,0,1-1.175,2.825A3.851,3.851,0,0,1,404-792Z" transform="translate(5455 492)" fill="#fff"/>
	</g>
</svg>
