<svg xmlns="http://www.w3.org/2000/svg" width="48" height="48" viewBox="0 0 48 48">
  <path d="M24,48A24,24,0,0,1,7.029,7.029,24,24,0,0,1,40.97,40.97,23.842,23.842,0,0,1,24,48ZM13.131,10.562V39h6.855V29.352h4.375c3.447,0,6.2-.838,8.174-2.49a8.266,8.266,0,0,0,2.979-6.651,9.376,9.376,0,0,0-1.377-5.029,9.088,9.088,0,0,0-3.887-3.417,13.275,13.275,0,0,0-5.772-1.2Zm11.347,13.5H19.986v-8.2h4.57a3.819,3.819,0,0,1,2.93,1.211,4.592,4.592,0,0,1,1.075,3.183,3.717,3.717,0,0,1-1.045,2.813A4.255,4.255,0,0,1,24.478,24.059Z" transform="translate(0 0)" fill="#fff"/>
</svg>
