<svg xmlns="http://www.w3.org/2000/svg" width="20" height="20" viewBox="0 0 20 20">
	<g transform="translate(-48 -18.003)">
		<path d="M-11854.492,25V22.9a6.707,6.707,0,0,1-1.439-.388,5.617,5.617,0,0,1-1.395-.808l-1.529,1.506a6.961,6.961,0,0,0,2.027,1.207A9.928,9.928,0,0,0-11854.492,25Zm1.994,0a8.711,8.711,0,0,0,5.4-2.879,8.312,8.312,0,0,0,2.126-5.714,8.665,8.665,0,0,0-.619-3.267,8.58,8.58,0,0,0-1.717-2.7,8.293,8.293,0,0,0-2.58-1.849,7.506,7.506,0,0,0-3.189-.687h-.377l1.418-1.44L-11853.54,5l-3.92,3.92,3.92,3.92,1.507-1.506-1.352-1.329h.354a5.475,5.475,0,0,1,4.286,1.916,6.559,6.559,0,0,1,1.694,4.485,6.213,6.213,0,0,1-1.54,4.253,6.914,6.914,0,0,1-3.908,2.237Zm-7.752-3.167,1.527-1.528a5.872,5.872,0,0,1-.775-1.362,6.5,6.5,0,0,1-.4-1.539h-2.1a9.817,9.817,0,0,0,.6,2.392A8.044,8.044,0,0,0-11860.25,21.833Zm-1.75-6.423h2.1a7.674,7.674,0,0,1,.422-1.484,7.673,7.673,0,0,1,.774-1.462l-1.55-1.44a9.485,9.485,0,0,0-1.174,2.1A8.722,8.722,0,0,0-11862,15.41Z" transform="translate(11911 13.003)" fill="#4d4d4d"/>
	</g>
</svg>
