<svg xmlns="http://www.w3.org/2000/svg" width="20" height="20" viewBox="0 0 20 20">
	<path d="M-11843.712,8h-14.168a1.146,1.146,0,0,0-.8.3l-1.205,1.2a1.459,1.459,0,0,1-.7.2h-1a.431.431,0,0,0-.4.4v2.7a.431.431,0,0,0,.4.4h1c.2,0,.6.1.7.3l1.205,1.2a1.927,1.927,0,0,0,.8.3h4.119v2.7a.863.863,0,0,0,.8.8h1l1.608,6.2a1.242,1.242,0,0,1-.3,1.2,1.651,1.651,0,0,0-.5,1.2v.1a.862.862,0,0,0,.8.8h5.627a.661.661,0,0,0,.7-.8l-2.312-11.5c-.1-.4.2-.7.7-.7h1.809s1.809,0,1.809-3.5C-11841.9,8-11843.712,8-11843.712,8Z" transform="translate(11862 -8)" fill="#4d4d4d"/>
</svg>
