<svg xmlns="http://www.w3.org/2000/svg" width="48" height="48" viewBox="0 0 48 48">
	<rect width="48" height="48" fill="Transparent"/>
	<path d="M24,48a24,24,0,0,1-7.17-1.089L18.811,37.5h2.9a1.153,1.153,0,0,0,1.08-1.08v-.135a2.233,2.233,0,0,0-.675-1.62,1.69,1.69,0,0,1-.4-1.62l2.16-8.37h1.35A1.153,1.153,0,0,0,26.3,23.6V19.95h5.535a2.034,2.034,0,0,0,.916-.318c.059-.032.114-.062.164-.087l1.62-1.62c.135-.27.679-.4.945-.4h1.35a.577.577,0,0,0,.54-.54V13.335a.577.577,0,0,0-.54-.54H35.48a1.957,1.957,0,0,1-.945-.27l-1.62-1.62a1.526,1.526,0,0,0-1.08-.4H12.8a1.88,1.88,0,0,0-1.223.616c-.527.542-1.141,1.7-1.072,4.109,0,4.671,2.406,4.725,2.43,4.725h2.43a1.035,1.035,0,0,1,.832.333.688.688,0,0,1,.113.611l-3.1,15.525a.835.835,0,0,0,.152.721.99.99,0,0,0,.793.359h1.6l-1.752,8.321A24.021,24.021,0,1,1,24,48Z" fill="#F18D05"/>
</svg>
