<svg xmlns="http://www.w3.org/2000/svg" width="48" height="48" viewBox="0 0 48 48">
  <path d="M89.24-843.76a25.044,25.044,0,0,1,6.84-3.69A23.369,23.369,0,0,1,104-848.8a23.369,23.369,0,0,1,7.92,1.35,25.044,25.044,0,0,1,6.84,3.69,18.551,18.551,0,0,0,3.27-5.58A18.811,18.811,0,0,0,123.2-856a18.509,18.509,0,0,0-5.61-13.59A18.509,18.509,0,0,0,104-875.2a18.509,18.509,0,0,0-13.59,5.61A18.509,18.509,0,0,0,84.8-856a18.811,18.811,0,0,0,1.17,6.66A18.551,18.551,0,0,0,89.24-843.76ZM104-853.6a8.116,8.116,0,0,1-5.97-2.43A8.116,8.116,0,0,1,95.6-862a8.116,8.116,0,0,1,2.43-5.97A8.116,8.116,0,0,1,104-870.4a8.116,8.116,0,0,1,5.97,2.43A8.116,8.116,0,0,1,112.4-862a8.116,8.116,0,0,1-2.43,5.97A8.116,8.116,0,0,1,104-853.6Zm0,21.6a23.37,23.37,0,0,1-9.36-1.89,24.236,24.236,0,0,1-7.62-5.13,24.236,24.236,0,0,1-5.13-7.62A23.37,23.37,0,0,1,80-856a23.37,23.37,0,0,1,1.89-9.36,24.236,24.236,0,0,1,5.13-7.62,24.235,24.235,0,0,1,7.62-5.13A23.37,23.37,0,0,1,104-880a23.37,23.37,0,0,1,9.36,1.89,24.235,24.235,0,0,1,7.62,5.13,24.236,24.236,0,0,1,5.13,7.62A23.37,23.37,0,0,1,128-856a23.37,23.37,0,0,1-1.89,9.36,24.237,24.237,0,0,1-5.13,7.62,24.236,24.236,0,0,1-7.62,5.13A23.37,23.37,0,0,1,104-832Z" transform="translate(-80 880)" fill="#fff"/>
</svg>
